;PTH Drill file created by EasyEDA 
M48
INCH,LZ
;Holesize 1 = 0.012 INCH
T01C0.012
;Holesize 2 = 0.028 INCH
T02C0.028
;Holesize 3 = 0.035 INCH
T03C0.035
;Holesize 4 = 0.035 INCH
T04C0.035
;Holesize 5 = 0.040 INCH
T05C0.040
;Holesize 6 = 0.110 INCH
T06C0.110
;Holesize 7 = 0.126 INCH
T07C0.126
%
G05
G90
T01
X033111Y022813
X039985Y038013
X002434Y036680
X002544Y038719
X023496Y034680
X027681Y028817
X036994Y018009
X034335Y021253
X034288Y024200
X031981Y038200
X040822Y032551
X039081Y032494
X019065Y033094
X009942Y021359
X008486Y020744
X032306Y015705
X021707Y031719
X041232Y030357
X004927Y018655
X034634Y017865
X032364Y036200
X040934Y031551
X034631Y025311
X031903Y017909
X034865Y015557
X032509Y034200
X009039Y039719
X032965Y014561
X031206Y013796
X014989Y021692
X019393Y021221
X041468Y019421
X041085Y018000
T02
X036650Y040450
X036650Y039950
X036650Y039450
X039050Y040650
X039050Y040150
X039050Y039650
X041550Y040450
X041550Y039950
X041550Y039450
X036650Y037150
X036650Y036650
X036650Y036150
X039150Y037150
X039150Y036650
X039150Y036150
X041550Y037250
X041550Y036750
X041550Y036250
X043850Y037250
X043850Y036750
X043850Y036250
X043850Y034250
X043850Y033750
X043850Y033250
X041150Y034150
X041150Y033650
X041150Y033150
X036550Y033950
X036550Y033450
X036550Y032950
X043850Y040450
X043850Y039950
X043850Y039450
X038650Y033950
X038650Y033450
X038650Y032950
T03
X009600Y001800
X010600Y001800
X012500Y001800
X013500Y001800
X015300Y001800
X016300Y001800
X020700Y001800
X021700Y001800
X023400Y001800
X024400Y001800
X025900Y001800
X026900Y001800
X028500Y001800
X029500Y001800
X031000Y001800
X032000Y001800
X033500Y001800
X034500Y001800
X036100Y001800
X037100Y001800
X038600Y001800
X039600Y001800
X018000Y001800
X019000Y001800
T04
X020700Y018900
X023700Y018900
X025100Y018900
X028100Y018900
X029600Y018900
X032600Y018900
X034100Y018900
X037100Y018900
X020700Y017100
X023700Y017100
X025000Y017100
X028000Y017100
X029700Y017100
X032700Y017100
X034100Y017100
X037100Y017100
X020700Y015100
X023700Y015100
X025000Y015100
X028000Y015100
X029700Y015100
X032700Y015100
X034100Y015100
X037100Y015100
X003300Y018800
X006300Y018800
X003100Y017300
X006100Y017300
X003100Y015600
X006100Y015600
X003200Y013900
X006200Y013900
X007600Y018800
X010600Y018800
X007600Y017300
X010600Y017300
X007600Y015600
X010600Y015600
X007600Y013900
X010600Y013900
X012000Y018800
X015000Y018800
X012000Y017300
X015000Y017300
X012000Y013900
X015000Y013900
X012000Y015600
X015000Y015600
T05
X022700Y022200
X023700Y022200
X024700Y022200
X025700Y022200
X026700Y022200
X027700Y022200
X028700Y022200
X021700Y022200
X020700Y041200
X021700Y041200
X022700Y041200
X023700Y041200
X024700Y041200
X025700Y041200
X026700Y041200
X019700Y041200
X013700Y022200
X014700Y022200
X015700Y022200
X016700Y022200
X017700Y022200
X018700Y022200
X019700Y022200
X012700Y022200
X011700Y041200
X012700Y041200
X013700Y041200
X014700Y041200
X015700Y041200
X016700Y041200
X017700Y041200
X010700Y041200
X003100Y041200
X004100Y041200
X005100Y041200
X006100Y041200
X007100Y041200
X008100Y041200
X009100Y041200
X002100Y041200
X030700Y033200
X029700Y033200
X030700Y034200
X029700Y034200
X030700Y035200
X029700Y035200
X030700Y036200
X029700Y036200
X030700Y037200
X029700Y037200
X030700Y038200
X029700Y038200
X030700Y039200
X029700Y039200
X030700Y040200
X029700Y040200
X030700Y025200
X029700Y025200
X030700Y026200
X029700Y026200
X030700Y027200
X029700Y027200
X030700Y028200
X029700Y028200
X030700Y029200
X029700Y029200
X030700Y030200
X029700Y030200
X030700Y031200
X029700Y031200
X030700Y032200
X029700Y032200
X029700Y024200
X030700Y024200
X029700Y041200
X030700Y041200
X005700Y022200
X006700Y022200
X007700Y022200
X008700Y022200
X009700Y022200
X010700Y022200
T06
X003000Y004290
X004889Y005630
T07
X003000Y006750
M30
