G04 ---------------------------- Layer name :TOP SOLDER LAYER*
G04 EasyEDA v5.4.11, Sat, 12 May 2018 19:29:08 GMT*
G04 dca06a4066c74d719eec436680ae0180*
G04 Gerber Generator version 0.2*
G04 Scale: 100 percent, Rotated: No, Reflected: No *
G04 Dimensions in inches *
G04 leading zeros omitted , absolute positions ,2 integer and 4 decimal *
%FSLAX24Y24*%
%MOIN*%
G90*
G70D02*

%ADD13R,0.068000X0.098000*%
%ADD14C,0.082000*%
%ADD15R,0.070000X0.070000*%
%ADD16C,0.070000*%
%ADD17C,0.149700*%
%ADD18C,0.134000*%
%ADD19R,0.082000X0.082000*%
%ADD20C,0.047370*%

%LPD*%
G54D20*
G01X36846Y40450D02*
G01X36453Y40450D01*
G01X36846Y39950D02*
G01X36453Y39950D01*
G01X36846Y39450D02*
G01X36453Y39450D01*
G01X39246Y40650D02*
G01X38853Y40650D01*
G01X39246Y40150D02*
G01X38853Y40150D01*
G01X39246Y39650D02*
G01X38853Y39650D01*
G01X41746Y40450D02*
G01X41353Y40450D01*
G01X41746Y39950D02*
G01X41353Y39950D01*
G01X41746Y39450D02*
G01X41353Y39450D01*
G01X36846Y37150D02*
G01X36453Y37150D01*
G01X36846Y36650D02*
G01X36453Y36650D01*
G01X36846Y36150D02*
G01X36453Y36150D01*
G01X39346Y37150D02*
G01X38953Y37150D01*
G01X39346Y36650D02*
G01X38953Y36650D01*
G01X39346Y36150D02*
G01X38953Y36150D01*
G01X41746Y37250D02*
G01X41353Y37250D01*
G01X41746Y36750D02*
G01X41353Y36750D01*
G01X41746Y36250D02*
G01X41353Y36250D01*
G01X44046Y37250D02*
G01X43653Y37250D01*
G01X44046Y36750D02*
G01X43653Y36750D01*
G01X44046Y36250D02*
G01X43653Y36250D01*
G01X44046Y34250D02*
G01X43653Y34250D01*
G01X44046Y33750D02*
G01X43653Y33750D01*
G01X44046Y33250D02*
G01X43653Y33250D01*
G01X41346Y34150D02*
G01X40953Y34150D01*
G01X41346Y33650D02*
G01X40953Y33650D01*
G01X41346Y33150D02*
G01X40953Y33150D01*
G01X36746Y33950D02*
G01X36353Y33950D01*
G01X36746Y33450D02*
G01X36353Y33450D01*
G01X36746Y32950D02*
G01X36353Y32950D01*
G01X44046Y40450D02*
G01X43653Y40450D01*
G01X44046Y39950D02*
G01X43653Y39950D01*
G01X44046Y39450D02*
G01X43653Y39450D01*
G01X38846Y33950D02*
G01X38453Y33950D01*
G01X38846Y33450D02*
G01X38453Y33450D01*
G01X38846Y32950D02*
G01X38453Y32950D01*
G54D14*
G01X20700Y18900D03*
G01X23700Y18900D03*
G01X25100Y18900D03*
G01X28100Y18900D03*
G01X29600Y18900D03*
G01X32600Y18900D03*
G01X34100Y18900D03*
G01X37100Y18900D03*
G01X20700Y17100D03*
G01X23700Y17100D03*
G01X25000Y17100D03*
G01X28000Y17100D03*
G01X29700Y17100D03*
G01X32700Y17100D03*
G01X34100Y17100D03*
G01X37100Y17100D03*
G01X20700Y15100D03*
G01X23700Y15100D03*
G01X25000Y15100D03*
G01X28000Y15100D03*
G01X29700Y15100D03*
G01X32700Y15100D03*
G01X34100Y15100D03*
G01X37100Y15100D03*
G54D13*
G01X47800Y25500D03*
G01X47800Y22055D03*
G54D14*
G01X3300Y18800D03*
G01X6300Y18800D03*
G01X3100Y17300D03*
G01X6100Y17300D03*
G01X3100Y15600D03*
G01X6100Y15600D03*
G01X3200Y13900D03*
G01X6200Y13900D03*
G01X7600Y18800D03*
G01X10600Y18800D03*
G01X7600Y17300D03*
G01X10600Y17300D03*
G01X7600Y15600D03*
G01X10600Y15600D03*
G01X7600Y13900D03*
G01X10600Y13900D03*
G01X12000Y18800D03*
G01X15000Y18800D03*
G01X12000Y17300D03*
G01X15000Y17300D03*
G54D15*
G01X9600Y1800D03*
G54D16*
G01X10600Y1800D03*
G54D15*
G01X12500Y1800D03*
G54D16*
G01X13500Y1800D03*
G54D15*
G01X15300Y1800D03*
G54D16*
G01X16300Y1800D03*
G54D15*
G01X20700Y1800D03*
G54D16*
G01X21700Y1800D03*
G54D15*
G01X23400Y1800D03*
G54D16*
G01X24400Y1800D03*
G54D15*
G01X25900Y1800D03*
G54D16*
G01X26900Y1800D03*
G54D15*
G01X28500Y1800D03*
G54D16*
G01X29500Y1800D03*
G54D15*
G01X31000Y1800D03*
G54D16*
G01X32000Y1800D03*
G54D15*
G01X33500Y1800D03*
G54D16*
G01X34500Y1800D03*
G54D15*
G01X36100Y1800D03*
G54D16*
G01X37100Y1800D03*
G54D15*
G01X38600Y1800D03*
G54D16*
G01X39600Y1800D03*
G54D14*
G01X12000Y13900D03*
G01X15000Y13900D03*
G54D13*
G01X51300Y25400D03*
G01X51300Y21955D03*
G01X54900Y25500D03*
G01X54900Y22055D03*
G01X58800Y25500D03*
G01X58800Y22055D03*
G01X47900Y17000D03*
G01X47900Y13555D03*
G01X51300Y17000D03*
G01X51300Y13555D03*
G01X54900Y16900D03*
G01X54900Y13455D03*
G01X58900Y16900D03*
G01X58900Y13455D03*
G01X47800Y9200D03*
G01X47800Y5755D03*
G01X51400Y9200D03*
G01X51400Y5755D03*
G01X54900Y9100D03*
G01X54900Y5655D03*
G01X58900Y9200D03*
G01X58900Y5755D03*
G54D14*
G01X12000Y15600D03*
G01X15000Y15600D03*
G54D15*
G01X18000Y1800D03*
G54D16*
G01X19000Y1800D03*
G54D17*
G01X3000Y6750D03*
G54D18*
G01X3000Y4290D03*
G01X4889Y5630D03*
G54D14*
G01X22700Y22200D03*
G01X23700Y22200D03*
G01X24700Y22200D03*
G01X25700Y22200D03*
G01X26700Y22200D03*
G01X27700Y22200D03*
G01X28700Y22200D03*
G01X21700Y22200D03*
G01X20700Y41200D03*
G01X21700Y41200D03*
G01X22700Y41200D03*
G01X23700Y41200D03*
G01X24700Y41200D03*
G01X25700Y41200D03*
G01X26700Y41200D03*
G01X19700Y41200D03*
G01X13700Y22200D03*
G01X14700Y22200D03*
G01X15700Y22200D03*
G01X16700Y22200D03*
G01X17700Y22200D03*
G01X18700Y22200D03*
G01X19700Y22200D03*
G01X12700Y22200D03*
G01X11700Y41200D03*
G01X12700Y41200D03*
G01X13700Y41200D03*
G01X14700Y41200D03*
G01X15700Y41200D03*
G01X16700Y41200D03*
G01X17700Y41200D03*
G01X10700Y41200D03*
G01X3100Y41200D03*
G01X4100Y41200D03*
G01X5100Y41200D03*
G01X6100Y41200D03*
G01X7100Y41200D03*
G01X8100Y41200D03*
G01X9100Y41200D03*
G01X2100Y41200D03*
G54D19*
G01X30700Y33200D03*
G01X29700Y33200D03*
G01X30700Y34200D03*
G01X29700Y34200D03*
G01X30700Y35200D03*
G01X29700Y35200D03*
G01X30700Y36200D03*
G01X29700Y36200D03*
G01X30700Y37200D03*
G01X29700Y37200D03*
G01X30700Y38200D03*
G01X29700Y38200D03*
G01X30700Y39200D03*
G01X29700Y39200D03*
G01X30700Y40200D03*
G01X29700Y40200D03*
G01X30700Y25200D03*
G01X29700Y25200D03*
G01X30700Y26200D03*
G01X29700Y26200D03*
G01X30700Y27200D03*
G01X29700Y27200D03*
G01X30700Y28200D03*
G01X29700Y28200D03*
G01X30700Y29200D03*
G01X29700Y29200D03*
G01X30700Y30200D03*
G01X29700Y30200D03*
G01X30700Y31200D03*
G01X29700Y31200D03*
G01X30700Y32200D03*
G01X29700Y32200D03*
G54D14*
G01X29700Y24200D03*
G01X30700Y24200D03*
G01X29700Y41200D03*
G01X30700Y41200D03*
G01X5700Y22200D03*
G01X6700Y22200D03*
G01X7700Y22200D03*
G01X8700Y22200D03*
G01X9700Y22200D03*
G01X10700Y22200D03*
M00*
M02*
